<svg width="24" height="24" viewBox="0 0 24 24" fill="none" xmlns="http://www.w3.org/2000/svg">
<g id="ic-heart">
<path id="Shape" fill-rule="evenodd" clip-rule="evenodd" d="M10.5118 5.36261C8.69242 3.54319 5.74257 3.54319 3.92315 5.36261C2.10374 7.18202 2.10374 10.1319 3.92316 11.9513L4.70286 12.731C4.71561 12.7437 4.72797 12.7568 4.73995 12.7701L11.9987 20.0289L19.257 12.7705C19.2691 12.7571 19.2816 12.7439 19.2944 12.731L20.0742 11.9513C21.8936 10.1319 21.8936 7.18202 20.0742 5.36261C18.2547 3.54319 15.3049 3.54319 13.4855 5.36261L12.7058 6.14232C12.3152 6.53284 11.6821 6.53284 11.2915 6.14232L10.5118 5.36261ZM20.7471 14.1068C20.7351 14.1202 20.7226 14.1333 20.7097 14.1462L12.7068 22.1491C12.5192 22.3367 12.2647 22.4421 11.9995 22.442C11.9992 22.442 11.9997 22.442 11.9995 22.442C11.9992 22.442 11.9981 22.442 11.9979 22.442C11.7326 22.4421 11.4781 22.3367 11.2905 22.1491L3.28762 14.1462C3.27472 14.1333 3.26225 14.1202 3.25021 14.1068L2.50894 13.3655C-0.0915204 10.765 -0.0915242 6.54886 2.50894 3.9484C5.1094 1.34793 9.32559 1.34793 11.9261 3.9484L11.9987 4.021L12.0713 3.9484C14.6717 1.34793 18.8879 1.34793 21.4884 3.9484C24.0888 6.54886 24.0888 10.765 21.4884 13.3655L20.7471 14.1068Z" fill="#6C7080"/>
</g>
</svg>
